<svg xmlns="http://www.w3.org/2000/svg" width="980" height="430" viewBox="0 0 980 430" role="img" aria-label="Synthetic limited-input generation">
  <rect width="980" height="430" fill="#f8fafc"/>
  <text x="490" y="42" text-anchor="middle" font-family="Inter, Arial" font-size="25" font-weight="700" fill="#0f172a">Synthetic Limited-Input Generation</text>
  <rect x="70" y="105" width="180" height="95" rx="8" fill="#dbeafe" stroke="#2563eb"/>
  <text x="160" y="140" text-anchor="middle" font-family="Inter, Arial" font-size="16" font-weight="700" fill="#1e3a8a">Real ABPM</text>
  <text x="160" y="165" text-anchor="middle" font-family="Inter, Arial" font-size="12" fill="#1e40af">24-hour curve</text>
  <rect x="310" y="80" width="180" height="95" rx="8" fill="#dcfce7" stroke="#16a34a"/>
  <text x="400" y="112" text-anchor="middle" font-family="Inter, Arial" font-size="16" font-weight="700" fill="#166534">Rule Labels</text>
  <text x="400" y="137" text-anchor="middle" font-family="Inter, Arial" font-size="12" fill="#166534">dipping, surge, load</text>
  <rect x="310" y="225" width="180" height="95" rx="8" fill="#fef3c7" stroke="#d97706"/>
  <text x="400" y="257" text-anchor="middle" font-family="Inter, Arial" font-size="16" font-weight="700" fill="#92400e">Simple Inputs</text>
  <text x="400" y="282" text-anchor="middle" font-family="Inter, Arial" font-size="12" fill="#92400e">clinic and home BP</text>
  <rect x="555" y="225" width="180" height="95" rx="8" fill="#ede9fe" stroke="#7c3aed"/>
  <text x="645" y="257" text-anchor="middle" font-family="Inter, Arial" font-size="16" font-weight="700" fill="#5b21b6">Metadata</text>
  <text x="645" y="282" text-anchor="middle" font-family="Inter, Arial" font-size="12" fill="#5b21b6">demographic lifestyle</text>
  <rect x="765" y="150" width="160" height="120" rx="8" fill="#e0f2fe" stroke="#0284c7"/>
  <text x="845" y="185" text-anchor="middle" font-family="Inter, Arial" font-size="16" font-weight="700" fill="#075985">Student Table</text>
  <text x="845" y="212" text-anchor="middle" font-family="Inter, Arial" font-size="12" fill="#075985">values + masks</text>
  <text x="845" y="235" text-anchor="middle" font-family="Inter, Arial" font-size="12" fill="#075985">targets from ABPM</text>
  <path d="M250 153 H310" stroke="#334155" stroke-width="2" marker-end="url(#arrow)"/>
  <path d="M250 153 C285 190 285 230 310 272" stroke="#334155" stroke-width="2" fill="none" marker-end="url(#arrow)"/>
  <path d="M490 272 H555" stroke="#334155" stroke-width="2" marker-end="url(#arrow)"/>
  <path d="M490 128 C610 120 710 145 765 185" stroke="#334155" stroke-width="2" fill="none" marker-end="url(#arrow)"/>
  <path d="M735 272 C760 260 775 245 790 230" stroke="#334155" stroke-width="2" fill="none" marker-end="url(#arrow)"/>
  <defs>
    <marker id="arrow" markerWidth="10" markerHeight="10" refX="8" refY="3" orient="auto" markerUnits="strokeWidth">
      <path d="M0,0 L0,6 L9,3 z" fill="#334155"/>
    </marker>
  </defs>
</svg>
